<svg width="32" height="32" viewBox="0 0 32 32" xmlns="http://www.w3.org/2000/svg">
  <defs>
    <linearGradient id="flagPole" x1="0%" y1="0%" x2="100%" y2="100%">
      <stop offset="0%" style="stop-color:#8b4513;stop-opacity:1" />
      <stop offset="100%" style="stop-color:#654321;stop-opacity:1" />
    </linearGradient>
  </defs>
  <rect width="32" height="32" rx="0" fill="#1e3a8a"/>
  
  <!-- Flag pole -->
  <rect x="4" y="6" width="1.5" height="20" fill="url(#flagPole)"/>
  
  <!-- Flag -->
  <g transform="translate(5.5,8)">
    <!-- Saffron -->
    <path d="M0 0 L18 0 Q20 0 18 2 L0 4 Z" fill="#ff9933"/>
    <!-- White -->
    <path d="M0 4 L18 2 Q20 2 18 4 L0 8 Z" fill="white"/>
    <!-- Green -->
    <path d="M0 8 L18 4 Q20 4 18 6 L0 12 Z" fill="#138808"/>
    
    <!-- Ashoka Chakra -->
    <g transform="translate(9,6)">
      <circle r="2.5" fill="none" stroke="#000080" stroke-width="0.3"/>
      <circle r="0.3" fill="#000080"/>
      <!-- Spokes -->
      <g stroke="#000080" stroke-width="0.2">
        <line x1="0" y1="-2.5" x2="0" y2="2.5"/>
        <line x1="-2.5" y1="0" x2="2.5" y2="0"/>
        <line x1="-1.77" y1="-1.77" x2="1.77" y2="1.77"/>
        <line x1="-1.77" y1="1.77" x2="1.77" y2="-1.77"/>
        <line x1="-2.5" y1="-0.5" x2="2.5" y2="0.5"/>
        <line x1="-2.5" y1="0.5" x2="2.5" y2="-0.5"/>
        <line x1="-0.5" y1="-2.5" x2="0.5" y2="2.5"/>
        <line x1="0.5" y1="-2.5" x2="-0.5" y2="2.5"/>
      </g>
    </g>
  </g>
</svg>