<svg width="32" height="32" viewBox="0 0 32 32" xmlns="http://www.w3.org/2000/svg">
  <defs>
    <linearGradient id="bgGradient3" x1="0%" y1="0%" x2="100%" y2="100%">
      <stop offset="0%" style="stop-color:#a4c639;stop-opacity:1" />
      <stop offset="100%" style="stop-color:#8bc34a;stop-opacity:1" />
    </linearGradient>
  </defs>
  <rect width="32" height="32" rx="0" fill="url(#bgGradient3)"/>
  <g transform="translate(16,16)">
    <!-- Head -->
    <path d="M-6 -6 L6 -6 Q8 -6 8 -4 L8 2 Q8 4 6 4 L-6 4 Q-8 4 -8 2 L-8 -4 Q-8 -6 -6 -6" fill="white"/>
    <!-- Eyes -->
    <circle cx="-3" cy="-2" r="1" fill="#a4c639"/>
    <circle cx="3" cy="-2" r="1" fill="#a4c639"/>
    <!-- Antennae -->
    <line x1="-3" y1="-6" x2="-5" y2="-9" stroke="white" stroke-width="1.5" stroke-linecap="round"/>
    <line x1="3" y1="-6" x2="5" y2="-9" stroke="white" stroke-width="1.5" stroke-linecap="round"/>
    <!-- Arms -->
    <rect x="-10" y="-2" width="1.5" height="6" rx="0.75" fill="white"/>
    <rect x="8.5" y="-2" width="1.5" height="6" rx="0.75" fill="white"/>
    <!-- Legs -->
    <rect x="-4" y="4" width="1.5" height="4" rx="0.75" fill="white"/>
    <rect x="2.5" y="4" width="1.5" height="4" rx="0.75" fill="white"/>
  </g>
</svg>