<svg width="32" height="32" viewBox="0 0 32 32" xmlns="http://www.w3.org/2000/svg">
  <defs>
    <linearGradient id="bgGradient4" x1="0%" y1="0%" x2="100%" y2="100%">
      <stop offset="0%" style="stop-color:#306998;stop-opacity:1" />
      <stop offset="100%" style="stop-color:#ffd43b;stop-opacity:1" />
    </linearGradient>
  </defs>
  <rect width="32" height="32" rx="0" fill="url(#bgGradient4)"/>
  <path d="M16 6 C12 6 10 8 10 11 L10 13 L16 13 L16 14 L8 14 C6 14 4 16 4 19 C4 22 6 24 8 24 L11 24 L11 21 C11 18 14 16 16 16 L20 16 C22 16 24 14 24 12 L24 10 C24 8 22 6 20 6 L16 6 Z" fill="white"/>
  <path d="M16 26 C20 26 22 24 22 21 L22 19 L16 19 L16 18 L24 18 C26 18 28 16 28 13 C28 10 26 8 24 8 L21 8 L21 11 C21 14 18 16 16 16 L12 16 C10 16 8 18 8 20 L8 22 C8 24 10 26 12 26 L16 26 Z" fill="white"/>
  <circle cx="13" cy="10" r="1.5" fill="#306998"/>
  <circle cx="19" cy="22" r="1.5" fill="#ffd43b"/>
</svg>